<svg id="visual" viewBox="0 0 1200 600" width="1200" height="600" xmlns="http://www.w3.org/2000/svg" xmlns:xlink="http://www.w3.org/1999/xlink" version="1.1"><rect x="0" y="0" width="1200" height="600" fill="#295A82"></rect><path d="M0 364L171 365L343 359L514 351L686 366L857 367L1029 395L1200 382L1200 601L1029 601L857 601L686 601L514 601L343 601L171 601L0 601Z" fill="#b9d2e7"></path><path d="M0 463L171 480L343 478L514 409L686 440L857 464L1029 475L1200 457L1200 601L1029 601L857 601L686 601L514 601L343 601L171 601L0 601Z" fill="#8eabc6"></path><path d="M0 469L171 441L343 440L514 502L686 491L857 439L1029 460L1200 438L1200 601L1029 601L857 601L686 601L514 601L343 601L171 601L0 601Z" fill="#6586a6"></path><path d="M0 503L171 538L343 489L514 535L686 493L857 517L1029 516L1200 492L1200 601L1029 601L857 601L686 601L514 601L343 601L171 601L0 601Z" fill="#3d6287"></path><path d="M0 561L171 538L343 565L514 552L686 525L857 541L1029 573L1200 524L1200 601L1029 601L857 601L686 601L514 601L343 601L171 601L0 601Z" fill="#0f4068"></path></svg>