<svg xmlns="http://www.w3.org/2000/svg" version="1.1" xmlns:xlink="http://www.w3.org/1999/xlink" xmlns:svgjs="http://svgjs.dev/svgjs" width="1440" height="600" preserveAspectRatio="none" viewBox="0 0 1440 600"><g mask="url(&quot;#SvgjsMask1018&quot;)" fill="none"><rect width="1440" height="600" x="0" y="0" fill="#0e2a47"></rect><path d="M947.09 483.26 a32.87 32.87 0 1 0 65.74 0 a32.87 32.87 0 1 0 -65.74 0z" stroke="rgba(255, 255, 255, 1)"></path><path d="M322.54 183.13 a49.4 49.4 0 1 0 98.8 0 a49.4 49.4 0 1 0 -98.8 0z" fill="rgba(61, 91, 240, 1)"></path><path d="M666.63 151.87 a7.33 7.33 0 1 0 14.66 0 a7.33 7.33 0 1 0 -14.66 0z" stroke="rgba(61, 91, 240, 1)"></path><path d="M243.32-11.58a59.69 59.69 0 1 0 6.89 119.18z" fill="rgba(61, 91, 240, 1)"></path><path d="M1225.95 488.12L1259.88 488.12L1259.88 524.37L1225.95 524.37z" stroke="rgba(61, 91, 240, 1)"></path><path d="M526.04 560.62L560.35 560.62L560.35 594.93L526.04 594.93z" fill="rgba(228, 227, 246, 1)"></path><path d="M240.84 561.72a49.79 49.79 0 1 0-99.4 5.98z" fill="rgba(228, 227, 246, 1)"></path><path d="M-23.72 555.33a58.05 58.05 0 1 0 73.12-90.18z" fill="rgba(228, 227, 246, 1)"></path><path d="M511.23 165.67a51.25 51.25 0 1 0 17.15 101.05z" fill="rgba(228, 227, 246, 1)"></path><path d="M842.31 3.6L853.9 3.6L853.9 15.19L842.31 15.19z" stroke="rgba(255, 255, 255, 1)"></path><path d="M601.5 170.41L638.59 170.41L638.59 207.5L601.5 207.5z" fill="rgba(228, 227, 246, 1)"></path><path d="M168.33 70.62 a45.35 45.35 0 1 0 90.7 0 a45.35 45.35 0 1 0 -90.7 0z" stroke="rgba(228, 227, 246, 1)"></path><path d="M29.81 131.65L60.84 131.65L60.84 162.68L29.81 162.68z" fill="rgba(88, 114, 244, 1)"></path><path d="M1128.59 53.01 a55.38 55.38 0 1 0 110.76 0 a55.38 55.38 0 1 0 -110.76 0z" stroke="rgba(228, 227, 246, 1)"></path><path d="M1300 180.34 a13.2 13.2 0 1 0 26.4 0 a13.2 13.2 0 1 0 -26.4 0z" stroke="rgba(255, 255, 255, 1)"></path><path d="M196.9 290.25a40.24 40.24 0 1 0-42.01-68.65z" fill="rgba(255, 255, 255, 1)"></path><path d="M19.97 380.68 a54.14 54.14 0 1 0 108.28 0 a54.14 54.14 0 1 0 -108.28 0z" stroke="rgba(255, 255, 255, 1)"></path><path d="M446.87 281.86a43.17 43.17 0 1 0 1.62 86.33z" fill="rgba(88, 114, 244, 1)"></path><path d="M642.48 421.22L650.52 421.22L650.52 432.56L642.48 432.56z" fill="rgba(255, 255, 255, 1)"></path><path d="M402.68 203.54a59.61 59.61 0 1 0-100.02 64.89z" stroke="rgba(228, 227, 246, 1)"></path><path d="M615.05 325.22L643.66 325.22L643.66 380.43L615.05 380.43z" stroke="rgba(88, 114, 244, 1)"></path><path d="M606.37 54.11L653.74 54.11L653.74 95.76L606.37 95.76z" stroke="rgba(61, 91, 240, 1)"></path><path d="M452.95 352.97L473.22 352.97L473.22 373.24L452.95 373.24z" fill="rgba(61, 91, 240, 1)"></path><path d="M990.96 528.71a49.01 49.01 0 1 0 55.8-80.58z" fill="rgba(255, 255, 255, 1)"></path><path d="M327.17 527.81a16.75 16.75 0 1 0-28.45-17.69z" fill="rgba(61, 91, 240, 1)"></path><path d="M1166.27 203.36L1224.53 203.36L1224.53 261.62L1166.27 261.62z" stroke="rgba(61, 91, 240, 1)"></path><path d="M64.95 348.73L81.01 348.73L81.01 381.52L64.95 381.52z" fill="rgba(255, 255, 255, 1)"></path><path d="M287.7 107.81L323.23 107.81L323.23 162.86L287.7 162.86z" stroke="rgba(228, 227, 246, 1)"></path><path d="M960.52 309.6L969.16 309.6L969.16 318.24L960.52 318.24z" fill="rgba(61, 91, 240, 1)"></path><path d="M599.04 414.61L648.94 414.61L648.94 464.51L599.04 464.51z" stroke="rgba(88, 114, 244, 1)"></path></g><defs><mask id="SvgjsMask1018"><rect width="1440" height="600" fill="#ffffff"></rect></mask></defs></svg>