<svg xmlns="http://www.w3.org/2000/svg" version="1.1" xmlns:xlink="http://www.w3.org/1999/xlink" xmlns:svgjs="http://svgjs.dev/svgjs" width="1440" height="600" preserveAspectRatio="none" viewBox="0 0 1440 600"><g mask="url(&quot;#SvgjsMask1415&quot;)" fill="none"><rect width="1440" height="600" x="0" y="0" fill="#0e2a47"></rect><path d="M1358.99 139.79L1368.27 139.79L1368.27 149.07L1358.99 149.07z" fill="rgba(246, 246, 246, 1)"></path><path d="M570.56 410.95a21.21 21.21 0 1 0 8.53-41.56z" fill="rgba(49, 93, 119, 1)"></path><path d="M359.32 81.84 a45.19 45.19 0 1 0 90.38 0 a45.19 45.19 0 1 0 -90.38 0z" stroke="rgba(232, 89, 89, 1)"></path><path d="M78.92 199.94 a39.48 39.48 0 1 0 78.96 0 a39.48 39.48 0 1 0 -78.96 0z" fill="rgba(232, 89, 89, 1)"></path><path d="M935.51 488.54L994.56 488.54L994.56 547.59L935.51 547.59z" stroke="rgba(246, 246, 246, 1)"></path><path d="M852.02 60.62L856.37 60.62L856.37 69.35L852.02 69.35z" stroke="rgba(246, 246, 246, 1)"></path><path d="M258.35 232.4L282.58 232.4L282.58 256.63L258.35 256.63z" fill="rgba(246, 246, 246, 1)"></path><path d="M1364.5 532.91L1389.29 532.91L1389.29 557.7L1364.5 557.7z" stroke="rgba(35, 60, 90, 1)"></path><path d="M1370.41 87.24L1400.13 87.24L1400.13 94.69L1370.41 94.69z" fill="rgba(35, 60, 90, 1)"></path><path d="M28.63 411.8 a52.9 52.9 0 1 0 105.8 0 a52.9 52.9 0 1 0 -105.8 0z" fill="rgba(232, 89, 89, 1)"></path><path d="M1062.58 296.32L1094.1 296.32L1094.1 335.03L1062.58 335.03z" fill="rgba(49, 93, 119, 1)"></path><path d="M613.72 352.47a13.81 13.81 0 1 0 3.09 27.44z" stroke="rgba(35, 60, 90, 1)"></path><path d="M736 8.61a35.75 35.75 0 1 0 69.68-16.06z" fill="rgba(49, 93, 119, 1)"></path><path d="M557.27 225.5a33.45 33.45 0 1 0-64.88 16.29z" stroke="rgba(35, 60, 90, 1)"></path><path d="M640.73 324.83a16.59 16.59 0 1 0-31.35-10.85z" fill="rgba(232, 89, 89, 1)"></path><path d="M910.31 207.16L950.68 207.16L950.68 208.21L910.31 208.21z" stroke="rgba(35, 60, 90, 1)"></path><path d="M561.78 260.59L604.86 260.59L604.86 268.53L561.78 268.53z" stroke="rgba(232, 89, 89, 1)"></path><path d="M854.31 241.59a47.05 47.05 0 1 0 94.02 3.9z" stroke="rgba(246, 246, 246, 1)"></path><path d="M852.68 64.96 a10.94 10.94 0 1 0 21.88 0 a10.94 10.94 0 1 0 -21.88 0z" fill="rgba(35, 60, 90, 1)"></path><path d="M585.38 529.69 a39.06 39.06 0 1 0 78.12 0 a39.06 39.06 0 1 0 -78.12 0z" fill="rgba(246, 246, 246, 1)"></path><path d="M881.74 482.34L932.03 482.34L932.03 537.13L881.74 537.13z" stroke="rgba(49, 93, 119, 1)"></path><path d="M115.09 65.36L144.93 65.36L144.93 95.2L115.09 95.2z" fill="rgba(35, 60, 90, 1)"></path><path d="M1181.28 73.67a8.18 8.18 0 1 0-10.78 12.31z" fill="rgba(232, 89, 89, 1)"></path><path d="M54.37 181.07 a4.15 4.15 0 1 0 8.3 0 a4.15 4.15 0 1 0 -8.3 0z" fill="rgba(49, 93, 119, 1)"></path><path d="M752.46 521.09L808.7 521.09L808.7 577.33L752.46 577.33z" fill="rgba(246, 246, 246, 1)"></path><path d="M1369.45 58.4L1378.9 58.4L1378.9 64.4L1369.45 64.4z" fill="rgba(246, 246, 246, 1)"></path><path d="M1110.37 244.13L1139.89 244.13L1139.89 298.49L1110.37 298.49z" fill="rgba(35, 60, 90, 1)"></path><path d="M386.4 405.59L397.06 405.59L397.06 416.25L386.4 416.25z" fill="rgba(49, 93, 119, 1)"></path><path d="M4.26 182.25a27.08 27.08 0 1 0 33.37 42.65z" fill="rgba(49, 93, 119, 1)"></path><path d="M867.89 121.01L885.95 121.01L885.95 139.07L867.89 139.07z" fill="rgba(35, 60, 90, 1)"></path></g><defs><mask id="SvgjsMask1415"><rect width="1440" height="600" fill="#ffffff"></rect></mask></defs></svg>